<?xml version="1.0" encoding="UTF-8" standalone="no"?>
<!DOCTYPE svg PUBLIC "-//W3C//DTD SVG 1.1//EN" "http://www.w3.org/Graphics/SVG/1.1/DTD/svg11.dtd">
<svg width="100%" height="100%" viewBox="0 0 536 513" version="1.1" xmlns="http://www.w3.org/2000/svg" xmlns:xlink="http://www.w3.org/1999/xlink" xml:space="preserve" xmlns:serif="http://www.serif.com/" style="fill-rule:evenodd;clip-rule:evenodd;stroke-linecap:square;stroke-miterlimit:1.5;">
    <g transform="matrix(1,0,0,1,-7569.54,-3835.74)">
        <g transform="matrix(1.03323,0,0,1.14074,5254.67,1831.72)">
            <g transform="matrix(0.926613,0,0,0.839282,2012.89,1543.63)">
                <g transform="matrix(2.24559,0,0,2.24559,-40.0459,35.0099)">
                    <g transform="matrix(0.999425,0.0338989,-0.0338989,0.999425,9.9977,-7.66907)">
                        <path d="M203.48,288.899C203.48,288.899 206.885,250.109 262.406,255.231C262.406,255.231 293.351,258.614 295.928,288.113" style="fill:rgb(205,161,81);stroke:white;stroke-width:2.26px;"/>
                    </g>
                    <g transform="matrix(1.00531,0,0,0.847331,1.28325,39.1614)">
                        <rect x="125.32" y="250.128" width="246.547" height="5.627" style="fill:rgb(205,161,81);"/>
                    </g>
                </g>
                <g transform="matrix(2.24559,0,0,2.24559,-40.0459,35.0099)">
                    <g transform="matrix(1,0,0,1,1.14222,1.30984)">
                        <path d="M127.354,233.895L183.006,234.713" style="fill:none;stroke:rgb(205,161,81);stroke-width:1.45px;"/>
                    </g>
                    <g transform="matrix(1,0,0,1.04124,-0.567412,-9.72987)">
                        <ellipse cx="156.516" cy="235.196" rx="3.486" ry="6.503" style="fill:rgb(205,161,81);"/>
                    </g>
                </g>
                <g transform="matrix(2.24559,0,0,2.24559,383.572,35.0099)">
                    <g transform="matrix(1,0,0,1,1.14222,1.30984)">
                        <path d="M127.354,233.895L183.006,234.713" style="fill:none;stroke:rgb(205,161,81);stroke-width:1.45px;"/>
                    </g>
                    <g transform="matrix(1,0,0,1.04124,-0.567412,-9.72987)">
                        <ellipse cx="156.516" cy="235.196" rx="3.486" ry="6.503" style="fill:rgb(205,161,81);"/>
                    </g>
                </g>
                <g transform="matrix(2.24559,0,0,2.24559,-38.6101,36.4457)">
                    <path d="M229.249,233.79C229.249,233.79 144.952,226.97 160.093,137.217C160.093,137.217 227.481,142.432 237.433,195.596C237.433,195.596 236.909,108.386 344.809,96.863C344.809,96.863 378.2,211.834 249.349,234.488C249.349,234.488 299.632,204.501 309.846,155.003C309.846,155.003 283.133,201.358 238.611,226.762C238.611,226.762 229.891,185.198 195.63,166.239C195.63,166.239 219.576,199.256 229.249,233.79Z" style="fill:rgb(205,161,81);"/>
                </g>
                <g transform="matrix(2.23182,0,0,2.28795,-22.5535,-120.892)">
                    <path d="M146.168,393.755L143.461,391.013C142.432,391.973 141.393,392.733 140.341,393.292C139.29,393.852 138.033,394.132 136.571,394.132C135.428,394.132 134.372,393.909 133.4,393.464C132.429,393.018 131.59,392.407 130.881,391.63C130.173,390.853 129.624,389.945 129.236,388.905C128.847,387.865 128.653,386.751 128.653,385.563C128.653,384.375 128.847,383.267 129.236,382.238C129.624,381.21 130.173,380.313 130.881,379.548C131.59,378.782 132.429,378.177 133.4,377.731C134.372,377.285 135.428,377.063 136.571,377.063C137.942,377.063 139.165,377.337 140.239,377.885C141.313,378.434 142.329,379.153 143.289,380.045L145.997,376.925C145.426,376.377 144.82,375.874 144.18,375.417C143.541,374.96 142.844,374.566 142.089,374.235C141.335,373.903 140.507,373.646 139.604,373.464C138.702,373.281 137.702,373.189 136.605,373.189C134.777,373.189 133.109,373.515 131.601,374.166C130.093,374.817 128.79,375.709 127.693,376.84C126.597,377.971 125.745,379.291 125.14,380.799C124.534,382.307 124.232,383.918 124.232,385.632C124.232,387.368 124.54,388.991 125.157,390.499C125.774,392.007 126.625,393.315 127.711,394.424C128.796,395.532 130.081,396.406 131.567,397.046C133.052,397.685 134.674,398.005 136.434,398.005C137.554,398.005 138.576,397.908 139.502,397.714C140.427,397.52 141.278,397.234 142.055,396.857C142.832,396.48 143.558,396.034 144.232,395.52C144.906,395.006 145.551,394.418 146.168,393.755Z" style="fill:rgb(205,161,81);fill-rule:nonzero;"/>
                    <path d="M180.822,387.483L180.822,397.594L185.003,397.594L185.003,373.601L180.822,373.601L180.822,383.575L169.305,383.575L169.305,373.601L165.123,373.601L165.123,397.594L169.305,397.594L169.305,387.483L180.822,387.483Z" style="fill:rgb(205,161,81);fill-rule:nonzero;"/>
                    <rect x="205.946" y="373.601" width="4.182" height="23.993" style="fill:rgb(205,161,81);fill-rule:nonzero;"/>
                    <path d="M249.683,381.656C249.683,380.422 249.471,379.313 249.049,378.331C248.626,377.348 248.02,376.503 247.232,375.794C246.444,375.086 245.484,374.543 244.353,374.166C243.222,373.789 241.959,373.601 240.565,373.601L231.105,373.601L231.105,397.594L235.287,397.594L235.287,389.882L240.062,389.882C241.391,389.882 242.639,389.705 243.808,389.351C244.976,388.996 245.995,388.477 246.865,387.791C247.736,387.106 248.423,386.249 248.927,385.22C249.431,384.192 249.683,383.004 249.683,381.656ZM245.398,381.741C245.398,383.049 244.934,384.098 244.005,384.89C243.077,385.681 241.81,386.077 240.205,386.077L235.287,386.077L235.287,377.405L240.205,377.405C241.787,377.405 243.048,377.767 243.988,378.489C244.928,379.212 245.398,380.296 245.398,381.741Z" style="fill:rgb(205,161,81);fill-rule:nonzero;"/>
                    <path d="M288.689,373.601L284.507,373.601L284.507,387.414C284.507,389.631 283.967,391.299 282.887,392.418C281.807,393.538 280.325,394.098 278.441,394.098C276.533,394.098 275.04,393.515 273.96,392.35C272.879,391.184 272.339,389.482 272.339,387.243L272.339,373.601L268.158,373.601L268.158,387.414C268.158,389.151 268.398,390.676 268.878,391.99C269.357,393.304 270.043,394.406 270.934,395.298C271.825,396.189 272.899,396.857 274.156,397.303C275.413,397.748 276.818,397.971 278.372,397.971C279.949,397.971 281.371,397.748 282.639,397.303C283.908,396.857 284.987,396.183 285.879,395.28C286.77,394.378 287.461,393.252 287.952,391.904C288.444,390.556 288.689,388.991 288.689,387.208L288.689,373.601Z" style="fill:rgb(205,161,81);fill-rule:nonzero;"/>
                    <path d="M319.812,383.918L329.786,373.601L324.611,373.601L313.197,385.666L313.197,373.601L309.015,373.601L309.015,397.594L313.197,397.594L313.197,390.636L316.933,386.797L325.125,397.594L330.232,397.594L319.812,383.918Z" style="fill:rgb(205,161,81);fill-rule:nonzero;"/>
                    <path d="M360.327,373.429L356.419,373.429L345.862,397.594L350.181,397.594L352.649,391.801L363.994,391.801L366.428,397.594L370.884,397.594L360.327,373.429ZM362.452,388.065L354.191,388.065L358.304,378.468L362.452,388.065Z" style="fill:rgb(205,161,81);fill-rule:nonzero;"/>
                </g>
            </g>
        </g>
    </g>
</svg>
